<?xml version="1.0" encoding="utf-8" ?><svg xmlns="http://www.w3.org/2000/svg" xmlns:xlink="http://www.w3.org/1999/xlink" width="96" height="96" viewBox="0 0 96 96"><path transform="scale(0.1875 0.1875)" d="M346.268 110.897C337.343 102.606 328.612 104.217 317.374 104.224L252.737 104.228C234.135 104.225 208.934 101.886 206.836 128.474C206.262 135.744 192.536 139.616 197.773 120.673C201.988 105.427 214.92 95.9185 230.002 93.742C235.758 93.2931 243.412 93.7445 249.323 93.751L316.241 93.7271C355.36 93.7086 365.383 105.21 364.991 144.376C364.812 146.252 365.292 148.772 364.874 150.569C363.565 156.196 358.711 156.78 355.19 152.75L354.966 152.489C351.819 136.785 360.121 124.719 346.268 110.897Z"/><path transform="scale(0.1875 0.1875)" d="M221.015 257.882C218.544 260.804 216.082 263.823 213.455 266.602C174.595 308.24 105.956 294.014 84.3587 243.147C63.0663 192.996 99.2524 135.73 154.013 134.695C204.647 131.171 245.299 181.971 232.854 231.91C231.325 238.043 229.039 243.349 226.357 249.055C232.948 256.062 243.108 267.442 250.31 273.317C258.163 267.73 270.088 267.425 278.561 271.905C300.698 283.609 297.768 316.248 273.647 323.454C249.33 330.717 229.444 304.604 241.23 283.125L243.082 280.751C237.374 273.817 227.599 264.791 221.015 257.882ZM152.634 144.533C114.941 146.751 86.2027 179.137 88.4833 216.826C90.7638 254.515 123.198 283.2 160.883 280.856C198.479 278.519 227.082 246.178 224.807 208.577C222.531 170.977 190.238 142.321 152.634 144.533ZM262.888 279.258C253.239 280.712 246.568 289.674 247.944 299.334C249.319 308.994 258.227 315.738 267.898 314.441C277.681 313.128 284.52 304.095 283.128 294.324C281.736 284.552 272.648 277.787 262.888 279.258Z"/><path transform="scale(0.1875 0.1875)" d="M151.78 171.426C151.695 166.206 151.028 163.909 156.376 161.749C162.223 161.492 161.983 167.332 161.961 171.426C170.308 172.834 175.029 175.304 181.835 179.896C192.021 169.127 198.999 178.594 189.125 186.781C194.931 194.145 195.393 199.157 198.108 207.643C199.351 207.607 200.704 207.595 201.96 207.579C209.804 207.484 212.517 219.108 198.108 217.319C196.423 227.07 194.446 231.108 189.125 239.071C200.723 250.867 188.298 253.97 184.786 249.155C184.133 248.261 182.669 246.938 181.835 246.204C173.888 251.347 170.59 252.838 161.309 254.318C161.426 256.311 161.53 257.504 161.309 259.472C160.534 260.354 160.164 260.65 159.239 261.388C153.096 264.367 151.182 259.506 151.251 254.318C143.099 252.757 138.252 250.7 131.376 246.204C121.144 256.607 115.125 246.558 124.182 239.071C119.11 233.077 115.795 225.139 115.145 217.319L108.228 217.319C99.8379 210.455 107.583 207.388 115.145 207.643C116.141 199.697 118.932 192.848 124.182 186.781C121.832 184.276 120.6 183.22 119.659 179.896C121.962 171.466 127.61 175.308 131.376 179.896C138.133 175.009 143.662 172.836 151.78 171.426ZM152.586 181.464C135.204 183.586 122.844 199.413 124.997 216.792C127.151 234.17 143 246.502 160.375 244.317C177.705 242.137 189.997 226.337 187.85 209.003C185.702 191.669 169.924 179.348 152.586 181.464Z"/><path transform="scale(0.1875 0.1875)" d="M361.014 194.522C358.985 194.535 354.855 194.71 353.002 193.966C340.912 189.108 352.416 169.752 358.487 167.043C366.582 166.37 382.701 194.497 361.014 194.522Z"/><path transform="scale(0.1875 0.1875)" d="M324.082 224.505C309.577 225.237 311.781 215.413 318.15 214.005C322.254 213.859 327.324 213.997 331.498 213.997L376.221 213.999C379.527 213.991 382.693 213.968 386.082 214.077C391.194 214.24 396.435 225.497 380.414 224.505C380.24 228.142 380.405 233.257 380.406 237.023L380.409 282.798C380.381 307.269 380.838 305.321 394.42 326.025L428.034 377.869C435.226 388.736 439.969 399.596 428.659 410.908C421.192 418.375 412.664 417.45 402.926 417.448L386.375 417.434L299.955 417.448C290.618 417.452 283.082 418.382 275.908 411.305C269.004 404.977 266.652 392.873 271.854 384.822C286.927 361.631 301.814 338.257 316.843 315.043C324.925 302.559 324.08 301.296 324.085 286.367L324.082 224.505ZM334.454 224.505L334.454 245.514L370.215 245.514L370.215 224.505C358.517 224.503 346.086 224.283 334.454 224.505ZM334.454 255.962L334.463 284.123C334.472 308.44 333.11 309.324 318.966 330.726L370.215 330.726L385.145 330.726C371.116 308.949 370.196 308.504 370.206 284.01L370.215 255.962L334.454 255.962ZM326.686 340.828L312.581 340.828L283.38 385.916C272.011 403.762 285.047 407.196 301.227 407.196L377.875 407.187L401.791 407.206C410.106 407.207 425.767 408.441 424.865 395.133C424.629 388.992 419.596 383.921 416.407 378.93L398.442 351.197C396.232 347.733 393.928 344.395 391.87 340.828L326.686 340.828Z"/><path transform="scale(0.1875 0.1875)" d="M250.31 386.229C246.444 386.389 241.481 386.246 237.532 386.242L196.74 386.241C174.231 386.245 153.814 378.32 151.944 352.069C151.048 339.492 151.807 324.379 151.769 311.459C151.873 307.698 153.007 306.402 156.376 305.298C163.512 305.377 161.968 313.041 161.963 318.261L161.946 338.682C161.944 343.521 161.66 349.822 162.541 354.202C167.483 378.798 190.394 376.134 209.227 376.121L238.202 376.115C241.19 376.115 248.664 375.769 251.155 376.514C255.413 377.787 255.49 384.415 250.31 386.229Z"/></svg>