<?xml version="1.0" encoding="utf-8" ?><svg xmlns="http://www.w3.org/2000/svg" xmlns:xlink="http://www.w3.org/1999/xlink" width="96" height="96" viewBox="0 0 96 96"><path transform="scale(0.1875 0.1875)" d="M250.966 193.415C251.068 177.535 249.715 177.108 234.42 171.155C208.433 159.692 195.228 124.898 212.648 101.412C221.866 88.9826 235.275 77.3964 250.966 75.2401C276.23 73.1297 280.081 83.0078 295.052 96.5596C317.933 117.271 307.11 156.498 280.254 169.868C264.794 177.751 260.892 173.325 261.035 193.415C287.562 195.426 311.064 214.119 318.309 239.923C319.099 242.738 319.653 245.425 320.538 248.253C330.21 250.443 347.157 251.747 357.032 252.275C360.07 213.405 405.043 192.476 436.92 215.029C459.78 231.233 465.463 262.852 448.875 285.689C421.989 322.703 363.732 308.073 357.032 262.909C344.951 260.948 332.744 260.128 320.538 258.662C316.419 292.425 295.513 315.552 261.035 320.437L261.035 334.643C286.547 336.094 308.075 360.791 307.371 386.013C305.433 455.545 203.694 449.327 205.233 385.621C203.852 359.704 225.83 337.446 250.966 334.643L250.966 320.437C218.573 316.642 194.704 293.692 192.144 260.737L154.135 260.737C151.041 283.048 136.198 301.861 113.172 305.764C67.4241 313.517 37.463 262.779 64.0075 225.628C90.3007 188.829 146.524 202.986 154.135 250.748L192.144 250.748C193.192 242.121 196.273 227.876 202.665 222.292C204.4 220.777 208.36 221.851 209.392 224.111C211.16 227.987 207.432 232.66 206.272 236.583C224.436 242.234 233.411 228.707 248.653 228.05C269.44 226.587 269.788 241.997 280.169 242.253C288.38 242.456 290.476 232.706 303.723 231.462C292.199 211.38 270.148 200.912 247.4 204.11C243.161 204.721 238.952 206.112 234.76 206.912C229.01 208.009 219.988 195.503 250.966 193.415ZM253.985 85.773C240.538 86.1782 237.477 91.784 229.085 99.5699C222.885 105.323 219.527 107.714 216.915 116C210.938 134.962 222.582 156.452 241.363 162.489C248.378 164.676 250.751 166.222 255.688 171.676L257.67 170.104C265.21 163.63 267.565 164.123 275.957 160.363C299.558 149.791 304.682 117.629 283.351 99.8436C274.02 92.1317 270.831 83.6692 253.985 85.773ZM100.786 215.889C78.7354 217.737 62.3465 237.093 64.1601 259.146C65.9737 281.2 85.3046 297.618 107.361 295.838C129.465 294.055 145.927 274.673 144.11 252.571C142.292 230.47 122.885 214.037 100.786 215.889ZM402.587 216.259C403.198 217.899 408.715 222.964 410.241 224.503L441.015 255.347C442.628 256.952 445.591 260.1 447.273 261.391L447.685 261.413C449.956 233.194 431.126 215.469 402.587 216.259ZM390.438 220.217C386.773 222.204 383.467 224.599 380.062 226.994C398.858 244.888 417.849 262.903 436.031 281.429L437.791 283.143C440.463 280.215 442.665 277.095 444.481 273.567C442.594 271.279 439.411 268.343 437.225 266.185L404.878 233.809C403.297 232.234 391.749 220.568 390.438 220.217ZM373.462 235.426C352.707 266.386 384.707 305.757 421.061 294.087C424.671 292.73 426.498 291.96 429.705 289.817C412.378 272.585 392.087 250.715 373.462 235.426ZM247.652 238.577C242.327 239.414 238.864 241.161 234.155 243.723C223.373 249.59 213.826 248.78 202.509 246.507C202.557 248.303 202.607 250.354 202.484 252.143C199.824 290.689 235.484 318.823 272.314 307.566C298.554 298.739 316.189 269.211 308.202 242.022C294.322 240.855 294.271 254.265 278.669 252.653C262.263 250.957 264.479 236.705 247.652 238.577ZM254.614 344.79C232.129 345.603 214.567 364.499 215.398 386.983C216.229 409.467 235.138 427.015 257.622 426.166C280.08 425.318 297.603 406.434 296.773 383.975C295.943 361.517 277.073 343.978 254.614 344.79Z"/><path transform="scale(0.1875 0.1875)" d="M277.528 140.444C264.815 141.251 249.123 140.577 236.226 140.384C233.097 140.474 231.273 138.71 231.246 135.482C231.222 129.156 228.481 112.017 235.564 110.543C248.625 110.343 261.312 110.699 274.869 110.612C285.824 110.542 280.158 128.182 281.488 135.424C281.871 137.511 279.748 139.719 277.528 140.444ZM241.556 121.018L241.556 130.219L271.248 130.219L271.248 121.018C261.413 121.136 251.408 121.014 241.556 121.018Z"/><path transform="scale(0.1875 0.1875)" d="M213.783 209.75C213.784 207.505 215.262 205.528 217.415 204.892C219.172 204.373 221.072 204.844 222.384 206.122C223.697 207.401 224.216 209.288 223.743 211.058C223.271 212.828 221.879 214.205 220.104 214.659C218.588 215.046 216.978 214.711 215.742 213.752C214.506 212.792 213.783 211.315 213.783 209.75Z"/><path transform="scale(0.1875 0.1875)" d="M102.878 265.18C98.2151 263.662 86.3713 262.879 88.574 255.674C88.9913 254.309 112.4 230.526 115.864 229.282C119.931 229.394 122.887 233.186 120.493 236.884C117.077 242.472 108.409 249.428 103.902 254.762C107.024 255.714 127.571 258.555 119.129 265.733C113.741 270.314 100.67 281.012 94.7163 284.579C90.9849 285.465 87.1916 283.52 87.8331 279.941C88.64 275.439 99.4534 267.753 102.878 265.18Z"/><path transform="scale(0.1875 0.1875)" d="M257.67 398.364C255.503 398.74 252.681 398.191 251.73 395.924C250.267 392.437 248.168 371.825 254.934 368.779C258.797 368.398 261.235 370.154 261.097 374.191C260.851 381.378 263.755 395.286 257.67 398.364Z"/></svg>