<?xml version="1.0" encoding="utf-8" ?><svg xmlns="http://www.w3.org/2000/svg" xmlns:xlink="http://www.w3.org/1999/xlink" width="96" height="96" viewBox="0 0 96 96"><path transform="scale(0.1875 0.1875)" d="M262.783 155.607C248.986 133.431 262.47 105.309 288.821 103.102C296.406 102.246 304.821 104.625 311.144 108.924C347.804 133.852 310.612 192.412 269.595 163.375C264.909 166.854 252.426 177.006 249.23 181.297C256.161 191.852 246.867 202.908 235.643 205.382C233.006 217.807 226.499 238.86 225.673 250.681C249.134 264.539 241.595 296.791 215.567 297.287C193.199 297.713 182.439 271.319 199.806 254.387C192.263 243.626 183.581 230.91 175.351 220.957C169.12 222.605 167.633 222.926 161.503 220.957L143.446 251.026C140.592 255.798 137.661 261.214 134.682 265.81C153.662 280.572 142.708 311.302 117.925 309.758C94.945 308.326 86.712 280.16 104.336 264.967C103.583 263.106 102.62 261.144 101.766 259.313C97.046 249.928 92.0551 238.49 87.5254 228.778C60.8595 229.452 52.3356 198.513 70.9311 184.605C95.6364 166.126 129.378 203.352 97.9349 225.996C102.596 237.485 108.434 248.888 113.518 260.312C118.398 259.888 121.272 260.092 126.216 260.312C134.991 244.822 144.706 229.701 153.5 214.309C144.254 195.753 162.037 180.353 177.084 189.113C186.385 194.61 188.152 205.47 182.973 214.309C191.274 223.399 201.455 239.265 209.066 249.643C211.551 249.017 212.562 249.24 215.017 249.643C218.22 234.209 222.31 218.597 225.673 203.212C207.925 192.079 219.798 163.518 242.538 173.335C246.818 168.275 257.342 160.074 262.783 155.607ZM288.445 113.242C275.324 114.976 266.085 127.005 267.794 140.129C269.503 153.253 281.515 162.515 294.642 160.83C307.804 159.142 317.096 147.091 315.383 133.932C313.669 120.773 301.6 111.503 288.445 113.242ZM233.306 181.447C230.831 181.698 228.684 183.266 227.693 185.548C226.703 187.83 227.022 190.469 228.529 192.448C230.036 194.428 232.495 195.438 234.958 195.091C238.664 194.567 241.27 191.175 240.82 187.459C240.37 183.743 237.03 181.071 233.306 181.447ZM85.0477 189.942C79.8505 190.141 75.1644 193.127 72.7887 197.753C70.4129 202.38 70.7169 207.928 73.5838 212.268C76.4507 216.607 81.435 219.064 86.6228 218.693C94.4628 218.134 100.406 211.391 99.9759 203.543C99.5459 195.695 92.9019 189.641 85.0477 189.942ZM167.406 197.084C163.362 197.545 160.437 201.169 160.84 205.22C161.244 209.271 164.825 212.247 168.881 211.902C171.557 211.675 173.904 210.024 175.022 207.581C176.14 205.139 175.855 202.284 174.278 200.109C172.701 197.935 170.075 196.779 167.406 197.084ZM214.259 259.033C206.553 259.665 200.803 266.398 201.384 274.107C201.965 281.817 208.661 287.611 216.374 287.08C224.158 286.544 230.018 279.773 229.431 271.992C228.844 264.211 222.035 258.396 214.259 259.033ZM116.935 270.438C108.975 271.896 103.722 279.554 105.227 287.506C106.732 295.457 114.421 300.665 122.363 299.113C130.24 297.574 135.396 289.963 133.903 282.077C132.41 274.191 124.829 268.991 116.935 270.438Z"/><path transform="scale(0.1875 0.1875)" d="M348.134 168.255C346.869 168.292 345.047 168.249 343.758 168.354C336.798 168.922 333.033 158.745 344.021 157.839C356.929 157.437 356.371 166.738 348.134 168.255Z"/><path transform="scale(0.1875 0.1875)" d="M412.64 232.195C404.859 234.274 405.888 225.075 405.636 220.241C404.454 196.667 386.158 175.205 363.187 169.899C357.063 168.485 355.126 163.047 360.665 159.521C363.087 159.255 365.544 159.792 367.883 160.465C395.085 168.276 415.436 193.652 415.989 222.1C416.069 226.204 416.897 230.091 412.64 232.195Z"/><path transform="scale(0.1875 0.1875)" d="M344.147 200.836C342.012 201.23 339.83 200.442 338.44 198.774C337.05 197.107 336.668 194.819 337.441 192.79C338.213 190.761 340.02 189.307 342.167 188.986C345.409 188.501 348.442 190.705 348.982 193.938C349.522 197.171 347.37 200.241 344.147 200.836Z"/><path transform="scale(0.1875 0.1875)" d="M379.312 224.384C372.548 224.46 373.391 220.28 371.565 215.112C367.201 202.762 354.915 202.607 352.876 197.694C351.45 194.259 354.077 191.835 356.899 190.758C372.677 191.618 391.06 219.603 379.312 224.384Z"/><path transform="scale(0.1875 0.1875)" d="M379.312 380.856C327.184 428.99 242.5 390.058 239.732 318.217C237.952 272.024 275.89 233.794 321.692 232.733C372.66 227.984 416.101 279.234 407.178 329.233C415.057 337.446 423.491 345.374 431.373 353.596C440.109 362.835 449.332 368.394 449.841 382.233C450.728 406.382 423.957 417.806 407.054 400.709C399.332 392.899 391.182 384.68 383.303 377.17C381.983 378.415 380.651 379.632 379.312 380.856ZM319.802 242.763C297.669 245.644 279.301 253.322 265.001 271.558C210.686 340.828 310.003 440.181 380.758 365.346C381.577 364.547 382.45 363.659 383.303 362.908C386.421 366.032 389.661 368.953 392.821 372.021L409.018 387.798C411.326 390.009 416.263 395.644 418.562 396.803C428.76 401.944 440.425 394.345 440.034 383.054C439.728 374.217 430.071 366.733 424.008 360.57L396.106 332.488C399.72 311.578 397.309 291.963 384.952 273.945C370.839 253.367 344.719 240.93 319.802 242.763Z"/><path transform="scale(0.1875 0.1875)" d="M331.58 313.508L331.559 262.386C331.59 258.804 332.944 257.356 336.4 256.531C344.642 257.184 341.801 271.171 341.801 277.831L341.79 313.508L357.087 313.491C360.078 313.49 362.761 313.471 365.86 313.687C371.955 314.114 372.257 323.067 365.348 323.305C360.995 323.455 356.6 323.386 352.234 323.385L287.929 323.378C281.609 323.378 274.763 323.537 268.493 323.378C265.594 321.392 264.744 318.985 266.299 315.756C269.581 312.383 277.995 313.47 282.668 313.508C282.735 308.293 280.455 299.879 287.691 299.227C294.897 299.837 292.793 307.757 292.768 313.508L307.263 313.508L307.23 298.328C307.226 295.341 307.13 292.565 307.454 289.556C308.082 283.716 316.574 283.749 317.333 289.262C317.679 291.783 317.503 295.054 317.499 297.68L317.473 313.508L331.58 313.508Z"/></svg>