<?xml version="1.0" encoding="utf-8" ?><svg xmlns="http://www.w3.org/2000/svg" xmlns:xlink="http://www.w3.org/1999/xlink" width="96" height="96" viewBox="0 0 96 96"><path transform="scale(0.1875 0.1875)" d="M287.532 215.376C286.56 212.16 284.922 208.706 283.743 205.494C266.752 158.769 300.396 115.547 347.871 110.751L348.187 110.741C389.135 109.641 421.957 140.09 423.153 181.178C424.242 218.586 395.344 249.092 358.84 252.761C353.613 253.286 349.115 252.917 343.939 253.007C323.157 248.892 319.31 245.897 303.05 234.909C297.585 235.835 289.396 239.157 284.837 239.401C272.718 240.049 285.895 219.016 287.532 215.376ZM347.871 120.762C308.131 124.799 278.64 162.19 292.649 201.057C298.715 217.888 300.317 209.743 293.017 226.799C296.724 225.851 301.831 224.243 305.451 224.064C308.696 225.523 311.709 229.078 314.676 231.207C324.851 238.506 336.932 242.629 349.438 243.135C368.191 243.846 384.805 236.794 397.518 222.927C432.637 184.622 404.696 122.233 354.168 120.717C352.784 120.685 349.144 120.613 347.871 120.762Z"/><path transform="scale(0.1875 0.1875)" d="M390.471 215.376C388.5 217.452 385.655 219.576 382.8 219.79C323.509 224.227 296.529 144.642 327.11 140.245C354.317 138.543 352.894 146.134 352.412 168.877C352.317 173.406 349.025 175.237 345.405 176.146C347.86 181.744 352.98 185.797 357.509 189.686C360.574 179.84 370.635 184.334 378.971 183.298C396.301 181.143 395.847 208.022 390.471 215.376ZM327.11 150.274C323.559 151.766 324.681 154.949 324.86 158.082C326.124 180.323 340.405 200.166 361.728 207.19C367.09 208.956 376.419 210.931 382.098 209.563C383.703 209.114 383.228 198.835 383.223 196.943C382.848 190.652 371.677 193.239 365.782 193.267C362.623 219.453 318.432 168.648 341.735 167.233L342.184 167.204C342.274 167.2 342.364 167.196 342.454 167.192L342.469 158.252C342.564 147.14 337.991 150.093 327.11 150.274Z"/><path transform="scale(0.1875 0.1875)" d="M151.232 177.52C160.315 162.299 176.684 150.174 194.955 150.274C198.407 149.243 202.072 149.955 205.543 150.346C241.795 154.431 265.909 200.039 244.305 228.646C244.357 258.901 244.316 268.61 221.125 288.294L241.611 288.119C269.65 287.841 291.569 312.301 291.732 339.623L291.742 370.577C291.765 393.713 292.531 400.81 267.16 400.818L182.375 400.81L112.542 400.827C100.157 400.937 89.5555 399.972 89.467 384.647L89.4842 355.871C89.4584 335.126 88.1738 319.13 104.379 302.59C120.761 285.871 140.114 288.267 161.479 288.294C135.581 272.609 136.59 253.78 136.004 228.646C134.685 227.154 133.469 225.711 132.202 224.152C119.044 207.958 126.799 179.641 151.232 177.52ZM196.396 159.749C182.508 160.113 169.608 167.891 162.025 179.292C160.031 182.29 159.049 185.605 155.944 187.565L155.545 187.599C152.504 187.845 148.25 187.118 145.592 188.347C134.92 193.281 132.973 211.693 141.191 219.535C148.429 217.025 154.477 212.151 159.856 206.837C168.36 198.437 167.256 200.482 177.891 206.061C195.426 214.45 218.722 220.756 238.507 219.535C239.711 216.425 241.041 213.167 241.657 209.843C246.471 183.875 222.327 156.244 196.396 159.749ZM168.777 212.117C160.211 221.872 154.496 222.795 145.671 229.356C145.506 247.057 144.908 259.988 158.351 273.772C170.476 286.203 191.819 291.693 207.82 284.179C233.622 272.208 234.451 253.817 234.39 229.356C216.765 229.811 195.921 224.807 179.803 217.778C176.236 216.223 171.803 213.357 168.777 212.117ZM175.165 298.246C177.923 308.876 191.712 312.469 200.521 305.12C202.797 302.858 204.033 301.403 205.032 298.246C203.287 297.945 193.879 298.245 191.414 298.245L181.625 298.216C179.774 298.192 176.898 297.996 175.165 298.246ZM165.059 298.246L147 298.233C124.701 298.228 105.257 305.087 100.306 330.419C98.9949 337.129 99.4419 345.202 99.4388 352.117L99.4461 381.802C99.5094 392.421 102.152 390.911 111.923 390.92L125.476 390.9L125.457 372.472C125.425 369.2 125.093 364.905 125.533 361.746C126.246 356.617 134.524 356.853 135.097 362.254C135.439 365.476 135.295 368.696 135.292 371.917L135.271 390.9L237.125 390.9L245.425 390.9L245.402 372.982C245.398 369.352 245.23 366.005 245.673 362.359C246.383 356.498 254.615 357.381 255.261 362.335C255.642 365.255 255.442 369.244 255.433 372.255L255.4 390.9L268.512 390.921C273.597 390.923 280.798 392.147 281.432 385.205C282.68 371.515 281.821 352.256 281.687 338.216C281.506 319.266 265.893 300.54 246.703 298.5C242.798 298.085 237.78 298.231 233.734 298.233L215.132 298.246C209.439 325.196 172.16 326.685 165.658 299.578C165.481 298.84 165.705 298.489 165.059 298.246Z"/></svg>